# xmcd
#
# Track frame offsets:
#   150
#   12069
#   29301
#   47259
#   56739
#   74051
#   91889
#   109694
#   118739
#   132686
#
# Disc length: 1973 seconds
#
# Revision: 0
# Processed by: cddbd v1.4PL0 Copyright (c) Steve Scherf et al.
# Submitted via: BirdCage freedb agent 1.2.1
#
DISCID=8707b30a
DTITLE=The Junkers - hunker down
DYEAR=2001
DGENRE=Country
TTITLE0=Let's Commit Adultery
TTITLE1=Buckeye Mile
TTITLE2=That's Why I Take Pills
TTITLE3=It's Hard to Win A Woman (When You're Working for 
TTITLE4=Thank You Coffee
TTITLE5=Visitation Rights
TTITLE6=Can't Stop the Bleeding
TTITLE7=The Pint of No Return
TTITLE8=In Other Words
TTITLE9=Susan B. Anthony Dollar Rag
EXTD=
EXTT0=
EXTT1=
EXTT2=
EXTT3=
EXTT4=
EXTT5=
EXTT6=
EXTT7=
EXTT8=
EXTT9=
PLAYORDER=
